<svg width="391" height="780" viewBox="0 0 391 780" fill="none" xmlns="http://www.w3.org/2000/svg">
<path fill-rule="evenodd" clip-rule="evenodd" d="M84.5638 364.501C84.604 367.225 84.8774 373.479 85.5621 376.116C77.9342 363.91 66.5043 350.569 64.7661 335.619C65.3078 335.471 67.7115 335.25 68.1311 334.935C72.0776 336.766 71.331 331.133 71.9143 328.527C73.4894 323.011 76.7986 317.585 78.2364 312.033C82.0159 310.401 74.426 309.71 73.3233 309.678C77.9077 304.582 80.0164 297.577 83.2806 291.633C88.0769 281.53 92.3725 271.203 96.2081 260.714C97.0464 267.287 97.1968 273.93 96.6859 280.539C95.1087 308.845 84.4569 336.063 84.5638 364.501ZM349.305 314.218C346.932 314.617 342.978 314.994 340.609 315.187C343.718 313.337 352.906 309.813 347.116 306.645C345.33 305.994 343.415 306.923 341.614 307.21C334.138 308.438 324.906 308.373 317.343 307.754C320.1 305.495 323.73 302.241 326.421 299.903C327.851 298.661 329.237 298.19 327.629 296.335C324.793 293.699 319.723 295.64 316.445 296.799C307.402 301.857 297.191 307.343 287.486 311.234C287.384 309.877 287.447 308.122 286.136 307.21C282.29 305.4 279.459 305.929 275.367 305.448C270.597 304.734 266.358 303.922 261.635 302.663C258.545 300.311 256.661 293.374 251.721 294.149C256.097 283.157 249.428 271.689 246.923 261.164C243.797 250.393 242.154 239.207 242.11 228.007C242.079 210.076 231.676 196.318 216.643 187.117C210.717 183.122 206.738 173.404 199.401 171.457C198.468 167.883 198.412 166.313 197.592 162.712C197.181 161.677 196.875 156.063 195.841 156.255C194.7 150.694 188.886 148.464 183.856 147.299C177.315 145.946 168.187 144.307 162.307 148.125C160.604 149.54 159.855 151.909 159.731 154.025C159.077 156.843 157.718 159.763 156.134 162.208C153.431 161.296 154.961 159.597 152.287 159.201C127.872 155.588 100.772 173.47 84.9314 190.914C56.2177 220.351 33.2793 260.536 37.0341 302.491C36.0243 302.342 31.5484 301.642 31.613 303.054C31.8322 309.193 32.9636 314.314 33.276 320.449C32.9655 328.576 41.4231 329.555 47.5327 331.56C47.1565 355.139 55.737 378.725 69.167 398.107C72.4298 401.921 77.3256 415.157 83.2811 409.884C83.9829 409.065 78.5401 403.388 77.5718 401.985C74.2653 397.83 65.507 377.254 71.6969 373.145C73.0729 377.586 86.3976 398.943 88.7728 386.821C91.9275 388.649 97.1405 389.897 100.912 389.708C108.001 393.542 114.9 397.683 121.708 401.985C124.879 408.203 129.531 414.175 133.428 420.145C106.458 482.342 80.1325 584.71 45.4249 643.292C42.3987 647.117 59.0464 653.62 61.9869 655.023C56.3636 664.139 55.6596 674.702 51.3815 684.518C50.5667 684.387 49.7447 684.56 49.0097 684.952C43.7325 688.52 41.7411 701.293 41.4401 707.591C41.6838 710.401 40.6407 714.649 42.9174 716.718C42.5991 717.062 42.3616 717.482 42.1925 717.911C40.5904 719.156 40.7877 721.908 41.6442 723.614C44.6575 729.858 66.6833 729.278 73.831 730.614C99.1497 732.755 120.4 733.092 145.715 730.752C148.823 730.102 146.473 725.262 144.939 723.95C145.647 723.519 146.1 722.733 145.79 721.723C140.035 705.291 119.235 706.403 106.648 697.628C109.958 695.717 107.822 696.327 105.742 697.07C103.536 695.686 101.389 694.128 99.4003 692.406C100.928 691.465 100.174 690.843 98.5221 691.631C95.9179 689.546 93.8897 686.323 90.5723 685.313C87.3231 684.518 87.3231 683.131 87.3231 682.256C89.2568 674.494 91.3691 666.533 92.4547 658.661C93.6127 660.366 103.605 646.703 105.742 643.292C114.049 630.157 114.027 617.213 119.84 602.929C131.778 571.823 156.231 506.628 171.143 476.878C206.035 533.642 189.04 610.415 210.564 670.945C211.521 672.763 213.32 679.584 215.811 677.616C216.78 677.843 217.809 677.964 218.731 678.095C218.465 684.712 217.968 691.311 216.867 697.859C215.841 698.13 214.97 698.667 214.518 699.607C212.791 698.341 209.483 717.025 209.2 718.929C209.196 721.384 207.076 726.85 209.012 728.31C206.222 729.449 205.766 733.661 207.728 735.827C213.554 743.644 241.949 741.496 252.425 742.806C265.672 742.478 321.09 747.43 324.938 734.883C325.703 732.019 324.391 728.403 321.724 727.301C322.792 724.814 320.236 722.412 318.672 720.667C309.452 711.092 295.275 709.584 282.999 705.417C283.457 704.948 266.975 696.517 263.402 694.433C263.638 691.602 257.745 694.44 257.729 694.433C254.919 689.475 252.929 681.762 251.045 676.414C254.522 675.338 262.898 674.382 264.451 670.945C269.441 669.274 264.436 662.049 263.402 658.661C234.152 585.595 261.902 493.434 218.731 424.471C226.645 419.947 235.723 410.044 227.907 401.738C226.342 399.741 222.516 393.524 222.579 394.609C221.125 388.689 217.879 378.493 216.867 372.507C213.154 350.531 215.588 329.949 218.731 307.754C223.096 324.455 238.139 338.369 253.442 345.999C259.414 348.459 267.3 353.537 273.857 351.935C279.775 350.187 290.522 338.059 291.789 332.234C309.04 334.281 326.952 332.638 343.438 327.224C345.555 326.424 348.059 326.492 347.405 323.494C346.752 320.949 342.098 321.598 340.098 322.07C343.156 320.378 351.096 319.935 351.035 315.509C350.932 314.587 350.25 314.06 349.305 314.218Z" fill="white"/>
<path fill-rule="evenodd" clip-rule="evenodd" d="M159.791 150.264C160.054 150.37 160.233 150.769 160.339 151.367C160.631 151.458 160.881 151.674 160.956 151.998C161.178 152.952 160.919 153.947 160.72 154.898L160.697 155.008C160.508 155.929 160.277 156.844 159.995 157.741L159.954 157.968C159.267 161.677 157.943 165.203 156.389 164.604L156.748 165.257C162.848 176.311 180.274 205.992 193.879 201.761C201.802 198.591 201.688 188.285 201.109 181.112C195.226 184.715 194.126 157.137 195.332 154.089C196.292 153.384 196.755 159.728 197.112 160.603C197.892 164.083 198.848 167.518 199.745 170.968C201.642 171.343 203.436 172.098 205.022 173.18C205.098 173.224 205.176 173.263 205.25 173.308C206.201 173.886 206.944 174.624 207.606 175.441C208.355 176.277 208.995 177.192 209.599 178.133C210.928 179.64 212.194 181.203 213.503 182.726C214.124 183.449 214.76 184.15 215.41 184.833L215.911 185.253C215.995 185.323 216.079 185.393 216.163 185.462C231.193 194.831 241.599 208.851 241.628 227.111C241.673 238.519 243.315 249.913 246.441 260.885C248.946 271.605 257.039 282.563 252.664 293.759C257.604 292.969 258.063 299.31 261.153 301.706L262.123 301.969C266.463 303.135 270.444 304.107 274.884 304.784C278.976 305.275 283.707 304.736 287.553 306.579C288.864 307.508 288.395 309.184 288.497 310.566C298.202 306.602 306.918 301.126 315.961 295.975L316.264 295.866C319.611 294.68 325.582 292.897 328.332 295.502C329.94 297.392 328.316 299.078 326.886 300.344C324.196 302.725 321.341 304.909 318.585 307.211C326.013 307.83 333.465 307.336 340.811 306.133L341.212 306.066C343.012 305.774 345.134 305.074 346.92 305.737C352.709 308.964 346.01 312.73 342.902 314.614C345.27 314.417 347.634 314.123 350.008 313.718C350.952 313.556 351.634 314.093 351.738 315.033C351.798 319.54 345.851 319.783 342.793 321.507L343.038 321.449C345.038 320.987 347.912 320.581 348.539 323.069C349.193 326.124 345.069 327.358 342.953 328.172C326.467 333.686 308.556 335.361 291.306 333.275C290.04 339.208 279.292 351.562 273.374 353.343C266.818 354.975 258.932 349.802 252.96 347.296C237.657 339.524 223.479 326.703 219.115 309.693C215.447 336.068 216.929 362.659 222.435 388.609C223.326 390.632 224.267 392.624 225.325 394.565C225.645 394.616 225.915 394.83 225.977 395.261C226.01 395.498 226.058 395.728 226.112 395.954C227.165 397.742 228.32 399.459 229.392 401.235C229.613 401.602 229.832 401.983 230.032 402.374C237.169 410.778 228.47 421.608 220.691 426.139C263.86 496.382 235.978 584.904 265.227 659.327L265.292 659.539C266.402 663.078 269.783 670.364 264.893 672.032C263.34 675.533 255.517 675.946 252.041 677.042C253.924 682.489 256.019 687.877 258.828 692.927L258.879 692.949C259.998 692.127 262.398 691.278 263.389 692.174C263.631 692.204 263.871 692.272 264.106 692.389C265.641 693.15 266.875 694.606 268.343 695.523C269.137 696.019 269.963 696.469 270.813 696.862C271.604 697.228 272.444 697.469 273.09 698.073C273.294 698.263 273.345 698.505 273.295 698.728C273.805 698.992 274.314 699.257 274.821 699.523L275.097 699.351C279.583 696.56 283.191 695.048 276.665 700.41C279.003 701.489 281.401 702.434 283.815 703.318C285.648 702.438 287.604 701.795 289.622 701.707C289.984 702.155 287.211 703.886 286.754 704.363C299.029 708.607 312.531 711.931 321.75 721.683L321.853 721.799C323.422 723.567 325.846 725.962 324.803 728.441C327.469 729.564 328.781 733.247 328.016 736.164C324.168 748.943 265.189 743.9 251.943 744.234C241.468 742.899 213.073 745.088 207.248 737.125C205.286 734.919 205.742 730.629 208.532 729.468C206.595 727.982 208.715 722.414 208.72 719.913L208.764 719.624C209.061 717.757 210.346 710.45 211.68 705.343C211.708 704.941 211.761 704.529 211.826 704.114L211.868 703.85C212.133 702.223 212.54 700.567 213.593 699.258C214.349 698.318 215.397 697.738 216.534 697.528C216.838 695.584 217.088 693.635 217.303 691.683C217.454 689.388 217.512 687.089 217.486 684.789C217.473 683.628 217.442 682.467 217.385 681.307C217.343 680.453 217.392 679.439 217.175 678.566C217.031 678.714 216.825 678.793 216.594 678.715C216.104 678.547 215.653 678.238 215.203 677.985C215.186 677.975 215.173 677.964 215.158 677.954C212.756 679.511 211.018 672.847 210.084 671.038C188.561 609.382 205.555 538.426 170.664 480.607C165.847 490.93 161.708 500.4 157.072 510.795C142.592 543.259 124.718 600.443 112.73 634.817C109.469 641.844 105.635 648.636 101.078 654.91C99.6217 656.56 98.6442 658.987 96.5353 659.873L96.3508 659.901C95.7879 660.952 95.0066 661.836 93.8448 661.807C93.5598 661.799 93.2691 661.767 92.9756 661.717C91.9458 668.87 90.651 676.068 88.9297 683.106L89.1619 683.009C90.2886 682.544 91.4734 682.148 92.6298 682.252C95.436 682.961 94.3969 685.411 92.1788 686.219C94.9398 687.076 96.8082 689.492 98.8584 691.503C100.591 690.57 102.533 690.087 104.609 690.291C104.927 690.322 105.169 690.46 105.337 690.651C105.456 690.652 105.572 690.658 105.682 690.676L105.456 690.812C105.824 691.432 105.561 692.374 104.609 692.379C103.861 692.383 103.141 692.451 102.445 692.579C101.962 692.862 101.481 693.147 101.007 693.445C102.607 694.856 104.31 696.157 106.064 697.347C106.991 696.874 107.97 696.478 108.989 696.16C110.305 695.75 110.879 697.838 109.558 698.217C109.277 698.297 108.999 698.387 108.724 698.482L108.452 698.646C108.389 698.684 108.323 698.723 108.254 698.764C120.84 707.702 142.115 706.569 147.87 723.307C148.061 723.938 147.962 724.483 147.695 724.912C148.942 726.055 149.518 728.109 149.237 729.685L149.261 729.817C149.475 731.092 149.167 732.212 147.795 732.503C138.642 733.354 129.511 733.896 120.318 734.063L119.576 734.069C106.405 734.157 42.3423 733.679 39.4526 725.232C38.6819 723.668 38.4445 721.242 39.5721 719.847C39.7029 719.097 39.9606 718.413 40.4187 717.879C38.5632 716.007 39.4759 711.288 39.2488 708.912C39.6561 700.979 41.2677 692.471 46.123 685.979C46.2023 685.877 46.2982 685.813 46.3973 685.783C47.2451 684.932 48.3592 684.394 49.6331 684.322C49.6727 684.223 49.7131 684.124 49.7518 684.025C50.7421 681.693 51.6828 679.318 52.6173 676.931C53.3108 674.22 54.0342 671.515 54.7588 668.825C55.4829 666.138 56.1913 663.446 56.8843 660.751C57.4362 658.602 57.911 656.181 58.8662 654.127C58.8403 654.039 58.8153 653.952 58.7868 653.864L57.7929 653.462C51.2824 650.819 40.9667 646.362 43.2332 643.418C67.3856 593.293 91.0275 521.933 113.192 469.968C113.538 468.949 113.904 467.936 114.306 466.932C115.285 464.489 116.277 462.05 117.282 459.617L117.888 458.158L127.544 434.953C128.554 432.525 129.694 430.109 130.49 427.599C131.258 425.182 131.464 422.776 130.006 420.576C128.701 418.608 126.862 416.979 125.391 415.13C124.279 413.731 123.195 412.237 122.223 410.668C121.34 409.506 120.603 408.176 119.945 407.104C118.89 405.386 117.549 403.484 116.783 401.499C115.796 400.878 114.807 400.259 113.814 399.647C112.1 398.687 110.413 397.682 108.771 396.595C106.697 395.363 104.61 394.154 102.507 392.971C101.747 392.594 100.988 392.219 100.227 391.846C97.9481 392.043 91.6523 389.237 89.5075 387.339C89.2624 387.29 89.0185 387.234 88.7761 387.173C88.6792 388.386 88.2826 389.484 87.3585 390.298C81.213 393.344 73.3801 379.549 71.2213 374.946C66.9313 379.132 77.1676 399.838 80.4741 404.07L80.6505 404.333C81.535 405.656 82.4621 407.142 83.7166 408.12L83.8432 408.216C84.7031 408.852 84.8627 409.844 84.1612 410.679C78.2056 416.049 71.954 404.258 68.6913 400.373C55.2623 380.63 46.6815 356.606 47.0577 332.588C40.9485 330.547 32.4911 329.549 32.8015 321.271C32.4892 315.022 31.3578 308.84 31.1379 302.587C31.0742 301.149 35.5499 301.862 36.56 302.014C35.0721 287.645 37.3202 273.057 41.3297 259.248C51.8562 223.913 95.2035 160.227 137.869 157.928C137.831 157.858 137.849 157.765 137.945 157.74C139.876 157.239 142.01 157.319 143.994 157.382C146.06 157.448 148.159 157.462 150.214 157.695C152.343 157.936 154.598 158.718 156.028 160.265L156.524 159.372C157.099 158.329 157.653 157.276 158.071 156.126C158.283 155.545 158.45 154.942 158.601 154.334C158.772 153.465 158.815 152.561 159.227 151.772C159.238 151.752 159.251 151.735 159.263 151.716C159.411 151.219 159.58 150.732 159.791 150.264ZM212.156 729.438C211.546 730.057 210.489 730.327 209.552 730.031C206.441 738.859 223.321 738.305 228.739 738.801C234.516 739.416 339.746 744.882 321.95 731.939C301.071 739.885 231.239 740.762 212.156 729.438ZM263.403 694.433C261.998 695.88 259.88 696.523 258.373 697.904C254.113 701.502 250.687 706.565 244.799 707.518C237.065 708.96 230.092 705.148 223.174 702.129C222.312 702.088 221.414 701.724 220.531 701.455C220.499 701.519 220.468 701.583 220.433 701.642C220.39 701.625 220.344 701.611 220.292 701.603C220.215 701.59 220.143 701.582 220.067 701.571C219.89 701.429 219.702 701.31 219.509 701.209C219.392 701.192 219.275 701.177 219.16 701.17C217.734 701.083 216.186 701.414 215.271 702.594C215.193 702.695 215.122 702.801 215.053 702.909C214.61 704.478 214.553 706.377 214.767 707.704C214.836 708.138 214.655 708.564 214.349 708.81C214.075 715.378 213.335 721.974 212.818 728.454C215.406 729.383 218.091 730.09 220.778 730.538C239.323 732.814 258.066 733.872 276.753 733.3C287.878 732.898 298.986 731.906 309.995 730.255C313.554 729.921 317.197 728.546 320.753 729.101C320.905 728.815 321.141 728.571 321.469 728.405C312.353 715.939 296.772 712.569 283.189 707.104C280.945 708.536 279.564 711.519 277.065 712.407C276.095 712.553 274.746 711.981 274.888 710.752C275.291 708.236 278.013 707.089 279.846 705.629C277.879 704.711 275.95 703.715 274.068 702.606C272.219 704.27 270.032 705.536 268.301 707.31C269.285 709.709 265.183 709.502 265.137 706.949C265.421 704.125 269.902 702.929 271.903 701.282C268.777 699.383 265.985 696.986 263.403 694.433ZM43.1664 719.113C43.0574 719.328 42.8796 719.523 42.6162 719.675C42.1603 719.938 42.3794 721.331 42.4023 721.801L42.4036 721.835C42.4286 722.678 42.4813 723.518 42.5544 724.357C43.3239 725.05 44.3078 725.577 45.401 725.894C78.6934 731.199 112.625 731.629 146.238 729.703C146.084 728.811 145.431 728.077 144.852 727.332C123.602 729.136 101.841 727.249 80.5554 725.492C68.1114 723.858 55.0732 723.182 43.1664 719.113ZM91.6361 686.47C86.1491 688.356 81.0436 690.972 76.1803 694.107C74.373 695.281 72.6481 696.627 70.5705 697.301C63.377 699.462 52.5919 689.078 52.419 688.961C49.9208 687.282 47.2719 688.848 45.9127 691.175C45.7871 691.391 43.7036 703.295 43.7665 709.127C43.3927 711.109 44.3902 714.35 43.8594 716.511C44.2767 717.013 44.8716 717.249 45.2722 717.773C45.4173 717.963 45.3762 718.178 45.2509 718.34C64.6765 719.936 83.9892 722.965 103.507 723.605C116.866 724.31 130.249 724.148 143.61 723.986C140.57 715.075 130.216 712.721 122.308 709.787C116.333 707.644 110.832 704.45 105.991 700.345C103.892 701.817 102.237 703.879 100.75 705.95C100.074 706.792 98.6862 707.428 97.9626 706.261C97.2173 705.051 98.6722 703.521 100.469 702.18C101.413 700.783 102.605 699.593 103.977 698.612C102.46 697.262 100.999 695.856 99.6312 694.36C96.7939 696.28 94.7094 699.041 92.6685 701.721C91.6876 702.789 89.8533 701.376 90.6579 700.172C91.3027 699.342 92.0284 698.577 92.8055 697.859C93.9768 695.653 95.6632 693.615 97.7092 692.204L97.5531 692.007C95.8441 689.816 94.3666 687.189 91.6361 686.47ZM43.2926 717.715C43.2455 717.772 43.1962 717.828 43.1434 717.882C43.1905 717.978 43.2265 718.078 43.2531 718.181L43.7516 718.22C43.5785 718.077 43.426 717.903 43.2926 717.715ZM250.216 677.403C240.039 679.322 229.525 680.06 219.252 678.475C220.442 685.1 221.187 691.766 220.797 698.493C236.156 702.921 242.538 710.303 255.318 695.549C254.7 694.611 254.344 693.458 253.929 692.346C252.163 687.522 250.704 682.532 250.216 677.403ZM63.281 655.675C63.1359 655.996 62.8742 656.259 62.4971 656.376C62.3627 656.969 62.2237 657.562 62.0755 658.153C61.8262 661.205 60.6725 664.231 59.4793 667.047C59.3974 667.241 59.3169 667.436 59.2359 667.63C58.4488 669.972 57.6238 672.309 56.8099 674.649C56.1934 677.08 55.6503 679.53 55.0827 681.973C54.9732 683.63 54.7376 685.272 54.3754 686.896C54.3586 686.972 54.336 687.041 54.3111 687.108C54.8799 687.361 55.4289 687.655 55.9467 687.951C71.5298 699.641 68.8385 691.826 83.8006 685.281C83.7146 684.652 84.0299 684.085 84.2871 683.434L84.3202 683.349C84.3359 683.308 84.3513 683.266 84.367 683.225C84.3423 682.977 84.3568 682.71 84.4226 682.427C85.938 676.238 88.0481 670.157 90.0231 664.102C90.3392 663.19 90.7051 662.299 91.0792 661.409C81.5924 661.287 72.2087 658.765 63.281 655.675ZM122.113 404.892C208.186 512.054 189.329 524.691 207.862 648.234C209.663 657.851 213.321 666.979 215.742 676.414L216.076 676.381C216.407 676.349 216.722 676.33 216.956 676.404L216.965 676.408L217.919 676.396C229.055 676.243 240.239 675.662 251.116 673.127C254.962 672.452 258.711 670.684 262.56 670.313C262.575 669.814 262.812 669.348 263.135 669.079C233.448 598.969 254.132 518.881 228.376 447.579C225.931 440.444 223.02 433.468 220.009 426.554C186.906 446.316 149.91 423.937 122.113 404.892ZM59.1766 658.681C58.993 659.49 58.7931 660.288 58.6109 661.059L58.3423 662.208C58.7244 661.046 59.0258 659.867 59.1766 658.681ZM133.664 423.869C133.722 425.641 133.293 427.427 132.713 429.093C130.855 434.432 128.474 439.634 126.343 444.87C124.897 448.423 123.463 451.982 122.015 455.535C100.558 512.767 74.2203 589.481 48.2346 643.719C58.0254 649.376 68.7606 653.379 79.8666 655.548C82.4455 656.409 89.8202 656.447 92.4305 657.813L93.0249 657.23C93.1277 654.788 95.9 653.048 97.0098 650.907C102.02 643.859 106.013 636.153 109.636 628.322L110.228 626.603C119.86 598.6 132.429 560.051 145.672 527.462L146.081 526.456C151.569 513.016 155.177 500.627 161.8 490.459C162.161 489.912 162.526 489.364 162.894 488.817C163.165 488.273 163.438 487.731 163.716 487.19C164.903 484.878 166.184 482.616 167.392 480.316C167.907 479.335 168.418 478.229 168.689 477.096C158.168 458.643 145.63 441.396 133.664 423.869ZM149.422 159.438C146.12 160.24 142.736 160.567 139.416 161.233C116.529 163.958 98.9824 180.161 83.8678 196.249C55.2363 226.273 38.5781 263.215 39.8076 304.969C50.0322 306.828 60.1514 309.55 70.5689 310.145C69.0549 307.855 71.5903 304.992 72.4631 302.8C87.5311 273.735 99.1655 241.65 108.613 211.051L108.356 212.386C105.39 227.744 101.934 243.036 96.6602 257.788C98.188 256.288 123.285 236.36 121.324 242.95C113.656 248.933 104.995 253.674 96.9609 259.165C106.514 291.024 92.7031 323.305 90.0791 355.177C89.4199 362.264 89.4771 369.4 88.591 376.46C88.254 377.258 88.6088 378.882 88.1127 379.642C88.4801 381.516 89.2529 383.223 90.8476 384.686C91.519 385.302 92.2519 385.835 93.0223 386.311C94.9458 386.6 96.8777 387.34 98.4442 388.025C101.93 389.549 104.997 391.796 108.113 393.942L108.196 393.998C113.22 396.575 118.238 399.503 123.275 402.556L123.5 402.673C125.374 403.655 127.289 404.54 128.922 405.902C128.996 405.964 129.046 406.035 129.078 406.109L132.138 407.996C156.644 423.094 181.911 438.026 210.642 427.248C218.715 424.002 230.45 417.425 228.943 407.255C228.646 406.28 228.194 405.364 227.683 404.472C227.541 404.28 227.395 404.092 227.248 403.907C226.134 402.502 224.888 401.213 223.922 399.696C223.528 399.078 223.176 398.443 222.867 397.789C222.649 397.723 222.455 397.569 222.333 397.303C220.95 394.292 219.596 391.276 218.334 388.211C203.039 334.98 221.604 277.785 226.856 224.095C227.22 221.02 227.756 217.914 227.755 214.818C227.755 214.672 227.966 214.677 227.977 214.818C229.83 228.521 228.425 242.352 226.663 255.994C224.408 273.059 221.446 290.054 219.41 307.151C224.821 324.384 239.976 336.836 255.888 344.303C258.595 345.587 261.364 346.731 264.186 347.739L264.376 347.805C267.477 348.888 270.977 350.563 273.969 348.368C279.711 344.477 283.765 338.541 287.486 332.824C285.981 332.661 284.473 332.52 282.965 332.417C279.261 336.646 274.723 340.236 269.934 343.171C267.982 344.287 265.765 343.815 264.863 341.629C264.011 339.567 265.054 337.157 265.809 335.169L265.918 334.878C269.74 324.589 276.376 315.159 285.337 308.715C278.577 307.366 271.555 307.407 265.069 304.74C265.423 305.111 264.959 305.526 264.734 305.84C264.814 306.45 264.37 306.896 263.825 307.059C258.533 313.961 254.523 322.135 253.685 330.889C253.908 333.871 251.236 337.314 248.662 334.183C246.649 325.469 254.567 311.85 261.529 306.473C254.547 301.689 256.582 294.786 252.199 294.754C251.067 296.924 249.589 299.002 247.726 300.614C246.884 301.298 245.862 301.813 244.958 302.419C244.008 303.057 243.018 301.654 243.771 300.884L243.97 300.645C246.828 297.232 250.223 293.876 250.813 289.258C251.667 283.571 249.107 277.81 247.144 272.615C243.381 262.655 240.886 252.293 239.67 241.718C238.293 232.243 239.968 222.415 236.719 213.247C236.073 210.694 235.144 208.368 234.006 206.21C233.978 206.187 233.952 206.164 233.927 206.136C232.576 204.575 231.496 202.839 230.236 201.205C228.918 199.495 227.489 197.867 225.976 196.328C223.447 193.755 220.655 191.608 217.744 189.541C217.69 189.521 217.636 189.496 217.581 189.464C217.036 189.142 216.512 188.752 216.007 188.322L215.958 188.288C214.265 187.114 212.538 185.839 211.217 184.245C209.92 182.679 208.997 180.854 207.938 179.13C206.491 177.367 205.112 175.479 203.366 174.01C202.379 173.448 201.352 172.918 200.471 172.214C200.326 172.154 200.18 172.097 200.031 172.043C200.406 173.571 200.974 174.977 201.486 176.529C202.228 176.217 203.242 176.563 203.367 177.704L203.413 178.129C204.158 185.112 204.534 193.562 200.421 199.608C191.362 212.719 177.832 201.525 170.99 192.306C164.849 184.953 159.686 176.774 155.874 167.985L155.811 167.868C155.101 166.523 153.562 162.422 153.128 160.451C152.028 159.873 150.691 159.593 149.422 159.438ZM120.421 403.806C120.394 403.841 120.362 403.871 120.328 403.897C121.613 405.718 122.837 407.602 124.098 409.43C123.064 407.742 122.092 406.042 121.231 404.323C120.962 404.149 120.691 403.978 120.421 403.806ZM48.5202 333.042C53.4301 359.65 60.4467 387.644 79.9978 407.538C73.9131 398.983 69.1813 388.996 67.8046 378.535C67.7476 375.727 68.7719 372.762 71.884 372.346C72.4151 372.275 72.8186 372.75 73.0083 373.172L73.0265 373.214C74.2508 376.131 75.8427 378.906 77.7276 381.447L77.9124 381.688C79.3349 383.524 85.3723 391.008 86.2146 387.431C85.598 369.346 66.8737 361.89 63.8072 336.983C58.5606 336.428 53.5819 334.439 48.5202 333.042ZM88.7737 385.82C88.7938 386.104 88.8036 386.385 88.7993 386.662C89.0774 386.547 89.3633 386.455 89.6557 386.384C89.3588 386.201 89.0653 386.012 88.7737 385.82ZM88.4952 383.872C88.5981 384.391 88.685 384.916 88.7384 385.435C89.2728 385.604 89.8014 385.79 90.3272 385.983C90.0085 385.697 89.7052 385.395 89.421 385.073C89.0897 384.697 88.779 384.294 88.4952 383.872ZM95.7312 260.427C91.896 271.11 87.6003 281.63 82.8042 291.92C79.5839 297.941 77.4353 304.958 72.979 310.183C72.9356 310.225 72.8919 310.263 72.8472 310.3L72.921 310.303C74.2489 310.361 81.464 311.07 77.7604 312.699C76.3224 318.355 74.4384 323.881 72.8631 329.5L72.828 329.663C72.2517 332.38 71.5229 337.854 67.6552 336.027C67.2356 336.347 66.7319 336.573 66.1902 336.723C67.9286 351.951 77.578 361.864 85.2059 374.297C83.5008 367.735 83.9991 360.883 84.5928 354.184L84.74 352.535C87.8917 321.817 99.4579 291.611 95.7312 260.427ZM127.765 358.069C121.548 350.334 90.9701 273.754 112.579 320.149C120.259 336.3 126.581 353.591 139.251 366.678C140.127 367.618 138.973 369.269 137.835 368.51C133.745 365.785 130.435 362.17 127.765 358.069ZM105.634 265.511C105.608 265.387 105.768 265.318 105.838 265.425C114.146 281.795 120.078 299.387 129.465 315.262C135.131 325.092 141.931 334.255 149.717 342.518C150.302 343.138 149.422 343.996 148.788 343.445C126.561 322.978 115.755 293.227 105.634 265.511ZM269.456 332.908L269.443 332.91L269.238 333.437C269.169 333.615 269.098 333.795 269.027 333.976C269.061 333.961 269.095 333.947 269.129 333.933C269.202 333.86 269.275 333.786 269.348 333.708C269.332 333.438 269.365 333.168 269.456 332.908ZM36.6484 302.657C35.5198 303.099 34.1334 303.182 32.8858 303.29C34.2825 309.857 35.4883 316.475 36.7524 323.059C37.3369 325.081 38.711 325.79 40.6128 326.431L42.1413 326.919C49.2771 329.201 56.4531 331.545 63.811 332.944C64.3283 332.608 65.0631 332.625 65.4065 333.163C65.7644 333.197 66.1318 333.216 66.4949 333.251C68.4608 326.005 71.8249 318.984 76.3265 312.973C63.744 313.378 51.0706 310.067 39.1007 306.364C38.616 306.599 37.9776 306.452 37.7731 305.896L37.5888 305.843C35.5793 305.248 32.9148 303.787 37.1379 304.529C36.8828 303.936 36.7412 303.298 36.6484 302.657ZM325.97 297.295C317.629 295.919 311.255 302.663 304.137 305.759C299.876 307.584 288.519 313.242 284.39 311.36C278.729 316.798 273.95 323.152 270.608 330.28C271.519 330.226 272.43 330.186 273.342 330.157C274.992 329.628 276.754 329.601 278.467 330.11C295.631 330.299 312.806 333.627 329.9 329.409L330.294 329.335C333.805 328.67 345.794 326.141 346.477 323.663C346.298 322.584 343.074 323.724 342.454 323.846C337.527 324.814 332.521 325.276 327.529 325.762C326.14 325.896 326.158 323.74 327.529 323.603C333.538 323.006 339.232 320.755 344.746 318.412C345.332 318.153 346.885 317.616 347.96 316.918C342.865 317.783 337.615 317.933 332.46 317.75C330.685 317.52 330.56 314.83 332.46 314.883C335.94 315.267 339.265 313.552 342.106 311.743L342.724 311.342C347.46 308.261 347.129 308.128 341.144 309.273C332.35 310.871 323.45 310.812 314.568 310.202C313.301 310.18 312.426 308.478 313.474 307.567C317.564 304.042 321.948 300.9 325.97 297.295ZM285.656 310.13L285.559 310.222C285.355 310.417 285.187 310.59 285.094 310.682L285.056 310.719C284.93 310.836 284.808 310.958 284.684 311.077C285.229 311.26 285.831 311.27 286.451 311.174C286.077 310.941 285.799 310.559 285.656 310.13ZM128.965 281.946L128.944 281.921L128.991 281.971C134.356 287.765 139.794 297.161 144.239 304.571C144.825 310.645 131.683 285.446 128.965 281.946ZM263.97 304.338C264.022 304.402 264.072 304.468 264.12 304.536L264.192 304.638L264.307 304.567C264.35 304.542 264.394 304.526 264.44 304.515C264.283 304.457 264.126 304.396 263.97 304.338ZM239.422 284.558C244.249 285.315 234.378 291.3 233.076 292.158C232.241 292.474 224.309 299.01 224.79 296.889C228.504 292.13 233.628 286.585 239.422 284.558ZM50.5882 272.015C52.3736 269.145 62.0905 272.923 65.162 273.376C66.8885 273.831 68.5963 274.369 70.3414 274.751C71.705 275.244 78.0636 274.766 75.73 277.456C73.295 278.763 70.116 277.753 67.6223 277.06C62.661 275.707 57.6825 274.129 52.6019 273.378C52.4494 273.302 52.4401 273.354 52.5736 273.533C53.6665 275.957 55.9649 278.231 58.5538 279.012C58.7326 279.063 58.6574 279.336 58.4764 279.29L58.3024 279.254C55.3908 278.605 49.1003 275.53 50.5882 272.015Z" fill="black"/>
<path fill-rule="evenodd" clip-rule="evenodd" d="M224.354 109.781C224.26 104.472 224.155 99.056 223.364 93.7982C222.591 88.6579 220.464 84.0116 216.808 80.2789C209.044 72.3502 197.789 70.4136 187.313 68.6389L169.402 65.6044C163.938 64.6789 158.108 63.1995 152.587 64.5121C149.867 65.1589 147.556 66.6615 145.445 68.4393C143.41 70.1529 141.221 71.993 139.842 74.2984C138.461 76.6072 137.986 79.306 137.537 81.9171C137.03 84.861 136.636 87.8279 136.357 90.8019C135.797 96.7604 135.72 102.764 136.127 108.734C136.323 111.63 136.637 114.518 137.037 117.393C137.235 118.819 137.459 120.241 137.712 121.658C137.787 122.076 137.844 122.538 137.92 123.006C137.355 124.609 137.034 126.27 137.06 127.924C137.136 132.795 141.256 135.861 145.409 137.508C147.817 138.463 150.335 139.111 152.701 140.178C155.19 141.3 156.884 143.118 158.586 145.193C161.832 149.149 165.495 152.705 169.677 155.672C178.545 161.963 189.776 164.938 200.535 162.68C203.117 162.138 205.721 161.297 208.041 160.029C210.491 158.69 212.334 156.751 213.881 154.458C216.753 150.201 218.813 145.407 220.371 140.529C221.961 135.554 223.089 130.569 223.705 125.38C224.318 120.209 224.447 114.985 224.354 109.781Z" fill="white"/>
<path fill-rule="evenodd" clip-rule="evenodd" d="M167.198 47.1091C174.61 46.0916 184.84 49.3986 188.531 56.0667C206.154 51.9204 228.382 51.7846 242.907 65.5874C258.063 81.9605 239.026 103.549 226.403 108.416C227.322 112.873 225.889 141.429 215.749 154.167C207.702 164.96 188.963 169.94 180.291 157.05L180.223 156.943C179.294 155.454 180.095 155.502 181.048 156.61C189.539 164.062 201.084 164.189 209.981 156.325C226.655 141.95 224.936 106.704 217.001 86.3139C194.409 83.8376 170.22 90.6713 154.616 107.643L155.671 113.983C155.851 115.063 156.055 116.142 156.211 117.226C156.31 117.92 156.322 118.611 155.839 119.173C154.248 121.029 151.565 118.24 149.357 117.131C148.705 117.04 148.053 117.004 147.412 117.049C136.807 118.413 138.896 138.945 150.553 135.346C151.532 134.737 152.373 134.923 152.753 135.806C155.532 138.346 157.364 142.876 161.98 147.239C163.609 148.875 165.091 150.245 166.923 151.557C167.999 152.643 171.246 153.751 170.217 155.609C168.27 159.838 156.792 146.555 154.763 142.881C148.404 145.387 141.358 144.536 134.769 143.923C100.008 142.12 104.648 105.551 133.141 82.4639C138.505 78.5234 144.422 75.3088 150.573 72.8351C151.413 72.4974 151.046 71.1213 150.195 71.4638C146.124 73.1008 142.157 75.0493 138.374 77.3044L138.369 75.9562C138.363 73.6853 138.399 71.3212 138.794 69.2463C138.992 67.8086 139.324 66.273 139.835 65.1179C140.468 61.5762 150.375 49.4195 167.198 47.1091ZM146.948 121.763C147.485 121.254 148.487 121.861 148.965 121.846C150.187 122.013 151.347 122.528 152.253 123.163C152.851 123.498 153.269 123.811 153.62 124.1L153.629 124.098C153.626 124.098 153.623 124.1 153.62 124.101L153.653 124.123C154.163 124.484 156.029 126.52 154.85 125.973C154.762 125.859 154.672 125.749 154.581 125.642C154.572 125.657 154.558 125.671 154.542 125.685L154.608 125.783C155.61 127.287 153.88 125.703 153.614 125.282C153.601 125.292 153.587 125.299 153.573 125.306L153.92 125.727C153.968 125.787 154.006 125.834 154.038 125.875L154.111 125.945C155.27 127.082 155.306 128.104 153.96 126.424C154.013 126.503 154.055 126.587 154.061 126.662L154.141 126.763C155.198 128.122 154.338 127.64 153.813 127.059L153.769 127.009L153.778 127.023C154.267 127.774 153.297 127.247 153.126 126.845L153.119 126.827C152.932 126.675 152.817 126.504 152.778 126.461L152.771 126.454C151.862 125.525 150.545 124.739 149.426 124.382C149.264 124.351 149.1 124.326 148.934 124.309C148.261 124.159 147.581 124.056 146.894 124.001C146.81 123.991 146.724 123.929 146.661 123.85C145.622 123.815 145.942 123.389 146.374 123.311L146.381 123.309L146.296 123.302C145.629 123.237 145.173 122.998 145.847 122.852L145.933 122.835C145.922 122.818 145.913 122.802 145.904 122.786C145.327 122.722 145.704 122.162 146.024 122.298C145.889 121.858 146.506 122.077 146.583 122.012C146.641 121.947 146.714 121.89 146.756 121.886C146.942 121.756 146.852 121.767 146.948 121.763ZM150.483 114.637L150.347 114.716C150.238 114.78 150.125 114.822 150.012 114.847C150.172 114.915 150.329 114.988 150.486 115.067C150.483 114.971 150.481 114.875 150.481 114.78L150.483 114.637Z" fill="black"/>
<path fill-rule="evenodd" clip-rule="evenodd" d="M203.327 143.666C201.577 144.171 199.699 144.217 197.916 143.694C196.299 143.221 194.638 142.178 193.447 140.799C192.39 139.573 191.705 138.084 191.732 136.494C191.735 136.313 191.8 136.161 191.9 136.044C192.008 135.917 192.158 135.83 192.319 135.792C192.485 135.753 192.66 135.767 192.809 135.835C192.945 135.896 193.06 136 193.133 136.152C193.316 136.392 193.498 136.628 193.681 136.858C195.152 138.671 196.576 140.025 198.788 140.511C199.988 140.775 201.187 140.658 202.287 140.256C203.464 139.825 204.528 139.068 205.362 138.099C205.739 137.661 206.184 137.482 206.619 137.479C207.112 137.476 207.6 137.705 207.967 138.07C208.328 138.429 208.569 138.917 208.591 139.428C208.61 139.876 208.464 140.344 208.074 140.762C206.79 142.138 205.127 143.145 203.327 143.666ZM203.273 120.962C205.066 122.05 207.799 124.587 205.87 127.284C203.599 129.662 200.329 126.935 198.718 125.702C197.224 124.746 195.545 127.204 196.932 128.32C208.574 136.923 213.299 121.247 204.18 119.683C203.176 119.511 202.803 120.625 203.273 120.962ZM186.497 116.175C185.921 115.807 185.243 115.681 184.491 116.022C183.904 116.289 182.874 117.177 182.157 118.345C181.667 119.144 181.319 120.081 181.392 121.058C181.408 121.284 181.324 121.452 181.192 121.575C181.087 121.673 180.936 121.745 180.759 121.767C180.608 121.786 180.44 121.769 180.303 121.726C180.042 121.645 179.904 121.476 179.852 121.338C179.35 120.008 179.566 118.524 180.129 117.185C180.888 115.378 182.266 113.864 183.169 113.376C184.715 112.54 186.538 112.502 188.086 113.353C189.403 114.077 190.227 115.247 191.046 116.439C191.22 116.692 191.393 116.944 191.572 117.191C191.93 117.686 191.966 118.177 191.827 118.599C191.673 119.065 191.282 119.459 190.792 119.665C190.339 119.856 189.814 119.882 189.349 119.687C188.956 119.521 188.596 119.199 188.368 118.652C187.984 117.731 187.344 116.715 186.497 116.175ZM215.771 118.224C215.376 118.429 215.067 118.491 214.629 118.36C214.387 118.288 214.148 118.148 213.96 117.961C213.775 117.776 213.641 117.546 213.589 117.29C213.461 116.659 213.115 116.068 212.622 115.683C212.2 115.354 211.668 115.18 211.079 115.278C210.442 115.384 209.835 115.792 209.418 116.272C209.278 116.433 209.169 116.615 209.059 116.797C208.853 117.136 208.653 117.451 208.369 117.7C208.261 117.795 208.099 117.86 207.942 117.86C207.878 117.86 207.814 117.85 207.752 117.831C207.118 117.196 206.996 116.715 207.017 116.237C207.038 115.736 207.236 115.229 207.556 114.756C208.306 113.647 209.73 112.737 210.69 112.531C212.006 112.249 213.313 112.587 214.361 113.321C215.439 114.075 216.237 115.247 216.486 116.567C216.546 116.885 216.521 117.229 216.4 117.526C216.281 117.817 216.074 118.066 215.771 118.224ZM189.399 104.344C188.609 105.112 187.675 105.231 186.729 105.337C186.204 105.396 185.784 105.444 185.372 105.537C184.237 105.792 183.116 106.177 182.093 106.731C181.024 107.311 179.858 108.01 179.02 108.905C178.821 109.118 178.633 109.341 178.445 109.565C178.273 109.77 178.108 109.966 177.933 110.156C177.733 110.374 177.543 110.602 177.354 110.83C177.238 111.022 177.214 111.069 177.191 111.118C177.155 111.192 177.114 111.275 177.067 111.364C177.003 111.485 176.927 111.618 176.848 111.739C176.717 111.959 176.646 112.02 176.585 112.047C176.484 112.092 176.388 112.114 176.295 112.102C176.208 112.091 176.126 112.049 176.044 111.981C175.639 111.639 175.519 111.078 175.532 110.482C175.55 109.579 175.884 108.578 176.192 107.963C176.908 106.534 177.901 105.048 179.095 103.982C180.457 102.764 181.947 101.843 183.659 101.207C184.723 100.813 185.954 100.45 187.113 100.496C187.948 100.529 188.744 100.776 189.402 101.394C189.806 101.774 189.999 102.313 189.999 102.853C189.999 103.403 189.798 103.956 189.399 104.344ZM217.377 111.375C217.327 111.457 217.257 111.514 217.18 111.548C217.099 111.583 217.008 111.594 216.922 111.579C216.835 111.565 216.753 111.525 216.688 111.466C216.625 111.408 216.578 111.332 216.556 111.239C216.032 108.941 215.014 107.232 212.841 106.129C211.773 105.587 210.543 105.242 209.38 104.967C209.042 104.888 208.685 104.836 208.325 104.783C207.197 104.619 206.062 104.431 205.327 103.521C204.884 102.973 204.698 102.273 204.803 101.632C204.902 101.029 205.255 100.475 205.897 100.144C207.496 99.3187 209.483 100.128 211.098 100.818C211.218 100.869 211.335 100.919 211.45 100.968C213.029 101.633 214.469 102.511 215.653 103.766C216.592 104.763 217.463 106.235 217.813 107.75C218.105 109.01 218.036 110.297 217.377 111.375Z" fill="black"/>
<path fill-rule="evenodd" clip-rule="evenodd" d="M182.116 145.333C184.039 140.838 188.235 137.534 193.067 136.326C196.615 135.441 200.339 135.469 203.956 135.82C205.851 136.003 207.883 136.153 209.669 136.855C211.194 137.455 212.437 138.589 213.371 139.92C214.484 141.498 215.24 143.304 215.772 145.154C215.847 145.417 215.918 145.682 215.984 145.949C215.753 147.345 215.263 148.534 213.967 149.412C212.702 150.269 211.193 150.619 209.689 150.744C209.541 150.673 209.399 150.601 209.268 150.526C206.924 149.187 205.274 146.022 202.316 146.451C199.676 146.833 197.938 150.148 196.368 152.093C191.328 152.679 186.291 151.167 182.191 148.291C181.983 147.307 181.97 146.314 182.116 145.333ZM219.409 141.923C219.006 140.794 218.498 139.7 217.896 138.67C215.907 135.263 212.852 132.548 209.225 130.997C200.647 127.331 189.547 129.915 182.619 135.927C180.253 137.982 177.86 141.002 177.136 144.251C176.92 144.294 176.716 144.406 176.548 144.564C171.543 141.419 166.388 138.393 162.355 134.034C159.426 130.866 157.389 127.118 156.141 122.999C156.039 122.66 155.491 122.709 155.508 123.084C155.512 123.172 155.517 123.26 155.522 123.347C155.47 123.186 155.223 123.269 155.204 123.426C154.533 128.43 153.693 133.735 154.467 138.765C154.929 141.766 156.295 143.963 158.121 146.336C160.078 148.879 162.293 151.245 164.558 153.513C165.996 154.953 167.497 156.614 169.257 157.67C171.304 158.897 173.625 159.829 175.81 160.776C178.032 161.741 180.288 162.633 182.586 163.407C187.18 164.959 191.928 166.031 196.759 166.501C200.628 166.876 205.049 167.284 208.756 165.832C211.597 164.719 213.891 162.707 215.71 160.287C217.69 157.651 219.256 154.648 220.121 151.482C221.021 148.193 219.599 142.453 219.409 141.923Z" fill="black"/>
</svg>
